<svg xmlns="http://www.w3.org/2000/svg" viewBox="0 0 32 32" height="48" width="48"><title>phone-vibrate</title><g><rect x="29.71" y="24.38" width="1.53" height="1.52" fill="#f2f2f2"></rect><rect x="29.71" y="18.28" width="1.53" height="1.53" fill="#f2f2f2"></rect><rect x="29.71" y="12.19" width="1.53" height="1.52" fill="#f2f2f2"></rect><rect x="29.71" y="6.09" width="1.53" height="1.53" fill="#f2f2f2"></rect><rect x="28.19" y="22.85" width="1.52" height="1.53" fill="#f2f2f2"></rect><rect x="28.19" y="19.81" width="1.52" height="1.52" fill="#f2f2f2"></rect><rect x="28.19" y="16.76" width="1.52" height="1.52" fill="#f2f2f2"></rect><rect x="28.19" y="13.71" width="1.52" height="1.52" fill="#f2f2f2"></rect><rect x="28.19" y="10.66" width="1.52" height="1.53" fill="#f2f2f2"></rect><rect x="28.19" y="7.62" width="1.52" height="1.52" fill="#f2f2f2"></rect><rect x="26.66" y="21.33" width="1.53" height="1.52" fill="#f2f2f2"></rect><rect x="26.66" y="15.23" width="1.53" height="1.53" fill="#f2f2f2"></rect><rect x="26.66" y="9.14" width="1.53" height="1.52" fill="#f2f2f2"></rect><path d="M8.38,32H23.62V30.47h1.52V1.52H23.62V0H8.38V1.52H6.85V30.47H8.38ZM16,1.52h3.04V3.04H16Zm-3.05,0h1.52V3.04H12.95ZM8.38,3.04h3.05V4.57h9.14V3.04h3.05V28.95H8.38Z" fill="#f2f2f2"></path><rect x="20.57" y="19.81" width="1.52" height="1.52" fill="#f2f2f2"></rect><rect x="19.04" y="15.23" width="1.53" height="1.53" fill="#f2f2f2"></rect><rect x="19.04" y="12.19" width="1.53" height="1.52" fill="#f2f2f2"></rect><rect x="17.52" y="21.33" width="3.05" height="1.52" fill="#f2f2f2"></rect><rect x="17.52" y="13.71" width="1.52" height="1.52" fill="#f2f2f2"></rect><rect x="14.47" y="19.81" width="3.05" height="1.52" fill="#f2f2f2"></rect><rect x="12.95" y="13.71" width="1.52" height="1.52" fill="#f2f2f2"></rect><rect x="11.43" y="21.33" width="3.04" height="1.52" fill="#f2f2f2"></rect><rect x="11.43" y="15.23" width="1.52" height="1.53" fill="#f2f2f2"></rect><rect x="11.43" y="12.19" width="1.52" height="1.52" fill="#f2f2f2"></rect><rect x="9.9" y="19.81" width="1.53" height="1.52" fill="#f2f2f2"></rect><rect x="3.81" y="21.33" width="1.52" height="1.52" fill="#f2f2f2"></rect><rect x="3.81" y="15.23" width="1.52" height="1.53" fill="#f2f2f2"></rect><rect x="3.81" y="9.14" width="1.52" height="1.52" fill="#f2f2f2"></rect><rect x="2.28" y="22.85" width="1.53" height="1.53" fill="#f2f2f2"></rect><rect x="2.28" y="19.81" width="1.53" height="1.52" fill="#f2f2f2"></rect><rect x="2.28" y="16.76" width="1.53" height="1.52" fill="#f2f2f2"></rect><rect x="2.28" y="13.71" width="1.53" height="1.52" fill="#f2f2f2"></rect><rect x="2.28" y="10.66" width="1.53" height="1.53" fill="#f2f2f2"></rect><rect x="2.28" y="7.62" width="1.53" height="1.52" fill="#f2f2f2"></rect><rect x="0.76" y="24.38" width="1.52" height="1.52" fill="#f2f2f2"></rect><rect x="0.76" y="18.28" width="1.52" height="1.53" fill="#f2f2f2"></rect><rect x="0.76" y="12.19" width="1.52" height="1.52" fill="#f2f2f2"></rect><rect x="0.76" y="6.09" width="1.52" height="1.53" fill="#f2f2f2"></rect></g></svg>