<svg width="21" height="21" viewBox="0 0 21 21" fill="none" xmlns="http://www.w3.org/2000/svg">
<g clip-path="url(#clip0_108_91)">
<line x1="1" y1="20.5" x2="20" y2="20.5" stroke="#0D0D0D"/>
<line x1="20.5" y1="1" x2="20.5" y2="20" stroke="#0D0D0D"/>
<line x1="0.5" y1="1" x2="0.5" y2="20" stroke="#0D0D0D"/>
<line x1="1" y1="0.5" x2="20" y2="0.5" stroke="#0D0D0D"/>
<rect x="3" y="3" width="1" height="1" fill="#0D0D0D"/>
<rect x="4" y="4" width="1" height="1" fill="#0D0D0D"/>
<rect x="5" y="5" width="1" height="1" fill="#0D0D0D"/>
<rect x="6" y="6" width="1" height="1" fill="#0D0D0D"/>
<rect x="7" y="7" width="1" height="1" fill="#0D0D0D"/>
<rect x="8" y="8" width="1" height="1" fill="#0D0D0D"/>
<rect x="9" y="9" width="1" height="1" fill="#0D0D0D"/>
<rect x="10" y="10" width="1" height="1" fill="#0D0D0D"/>
<rect x="11" y="11" width="1" height="1" fill="#0D0D0D"/>
<rect x="12" y="12" width="1" height="1" fill="#0D0D0D"/>
<rect x="13" y="13" width="1" height="1" fill="#0D0D0D"/>
<rect x="14" y="14" width="1" height="1" fill="#0D0D0D"/>
<rect x="15" y="15" width="1" height="1" fill="#0D0D0D"/>
<rect x="16" y="16" width="1" height="1" fill="#0D0D0D"/>
<rect x="17" y="17" width="1" height="1" fill="#0D0D0D"/>
<rect x="18" y="3" width="1" height="1" transform="rotate(90 18 3)" fill="#0D0D0D"/>
<rect x="17" y="4" width="1" height="1" transform="rotate(90 17 4)" fill="#0D0D0D"/>
<rect x="16" y="5" width="1" height="1" transform="rotate(90 16 5)" fill="#0D0D0D"/>
<rect x="15" y="6" width="1" height="1" transform="rotate(90 15 6)" fill="#0D0D0D"/>
<rect x="14" y="7" width="1" height="1" transform="rotate(90 14 7)" fill="#0D0D0D"/>
<rect x="13" y="8" width="1" height="1" transform="rotate(90 13 8)" fill="#0D0D0D"/>
<rect x="12" y="9" width="1" height="1" transform="rotate(90 12 9)" fill="#0D0D0D"/>
<rect x="11" y="10" width="1" height="1" transform="rotate(90 11 10)" fill="#0D0D0D"/>
<rect x="10" y="11" width="1" height="1" transform="rotate(90 10 11)" fill="#0D0D0D"/>
<rect x="9" y="12" width="1" height="1" transform="rotate(90 9 12)" fill="#0D0D0D"/>
<rect x="8" y="13" width="1" height="1" transform="rotate(90 8 13)" fill="#0D0D0D"/>
<rect x="7" y="14" width="1" height="1" transform="rotate(90 7 14)" fill="#0D0D0D"/>
<rect x="6" y="15" width="1" height="1" transform="rotate(90 6 15)" fill="#0D0D0D"/>
<rect x="5" y="16" width="1" height="1" transform="rotate(90 5 16)" fill="#0D0D0D"/>
<rect x="4" y="17" width="1" height="1" transform="rotate(90 4 17)" fill="#0D0D0D"/>
</g>
<defs>
<clipPath id="clip0_108_91">
<rect width="21" height="21" fill="white"/>
</clipPath>
</defs>
</svg>
