<svg xmlns="http://www.w3.org/2000/svg" viewBox="0 0 32 32" height="48" width="48"><title>interface-essential-home-1</title><g><polygon points="6.855 13.71 6.855 12.19 8.385 12.19 8.385 10.67 9.905 10.67 9.905 9.14 11.425 9.14 11.425 7.62 12.955 7.62 12.955 6.1 14.475 6.1 14.475 4.57 17.525 4.57 17.525 6.1 19.045 6.1 19.045 7.62 20.575 7.62 20.575 9.14 22.095 9.14 22.095 10.67 23.615 10.67 23.615 12.19 25.145 12.19 25.145 13.71 26.665 13.71 26.665 30.48 28.195 30.48 28.195 16.76 29.715 16.76 29.715 15.24 31.235 15.24 31.235 13.71 29.715 13.71 29.715 12.19 28.195 12.19 28.195 10.67 26.665 10.67 26.665 9.14 25.145 9.14 25.145 7.62 23.615 7.62 23.615 6.1 22.095 6.1 22.095 4.57 20.575 4.57 20.575 3.05 19.045 3.05 19.045 1.52 17.525 1.52 17.525 0 14.475 0 14.475 1.52 12.955 1.52 12.955 3.05 11.425 3.05 11.425 4.57 9.905 4.57 9.905 6.1 8.385 6.1 8.385 7.62 6.855 7.62 6.855 9.14 5.335 9.14 5.335 10.67 3.815 10.67 3.815 12.19 2.285 12.19 2.285 13.71 0.765 13.71 0.765 15.24 2.285 15.24 2.285 16.76 3.815 16.76 3.815 30.48 5.335 30.48 5.335 13.71 6.855 13.71" fill="#f2f2f2"></polygon><polygon points="26.665 32 26.665 30.48 20.575 30.48 20.575 18.29 19.045 18.29 19.045 30.48 12.955 30.48 12.955 18.29 11.425 18.29 11.425 30.48 5.335 30.48 5.335 32 26.665 32" fill="#f2f2f2"></polygon><rect x="22.095" y="19.81" width="3.05" height="3.05" fill="#f2f2f2"></rect><rect x="17.525" y="9.14" width="1.52" height="3.05" fill="#f2f2f2"></rect><rect x="14.475" y="7.62" width="3.05" height="1.52" fill="#f2f2f2"></rect><rect x="14.475" y="22.86" width="1.53" height="1.52" fill="#f2f2f2"></rect><rect x="12.955" y="16.76" width="6.09" height="1.53" fill="#f2f2f2"></rect><rect x="14.475" y="12.19" width="3.05" height="1.52" fill="#f2f2f2"></rect><rect x="12.955" y="9.14" width="1.52" height="3.05" fill="#f2f2f2"></rect><rect x="6.855" y="19.81" width="3.05" height="3.05" fill="#f2f2f2"></rect></g></svg>