<svg width="112" height="36" viewBox="0 0 112 36" fill="none" xmlns="http://www.w3.org/2000/svg">
<rect x="2" y="14" width="4" height="8" fill="#737373"/>
<path d="M6 2H106V34H6V2Z" fill="#737373"/>
<rect x="4" y="8" width="2" height="20" fill="#737373"/>
<rect width="4" height="8" transform="matrix(-1 0 0 1 110 14)" fill="#737373"/>
<rect width="2" height="20" transform="matrix(-1 0 0 1 108 8)" fill="#737373"/>
<rect x="2" y="14" width="2" height="8" fill="#404040"/>
<rect x="4" y="20" width="2" height="8" fill="#404040"/>
<rect x="6" y="26" width="2" height="6" fill="#404040"/>
<rect width="2" height="8" transform="matrix(-1 0 0 1 110 14)" fill="#404040"/>
<rect width="2" height="8" transform="matrix(-1 0 0 1 108 20)" fill="#404040"/>
<rect width="2" height="6" transform="matrix(-1 0 0 1 106 26)" fill="#404040"/>
<rect x="6" y="30" width="98" height="4" fill="#404040"/>
<rect x="104" y="4" width="2" height="4" fill="#BFBFBF"/>
<rect x="17" y="2" width="87" height="4" fill="#BFBFBF"/>
<rect x="8" y="2" width="2" height="4" fill="#BFBFBF"/>
<rect x="6" y="4" width="2" height="4" fill="#BFBFBF"/>
<rect x="4" y="8" width="2" height="4" fill="#BFBFBF"/>
<rect x="10" y="2" width="7" height="4" fill="#E7E7E7"/>
<rect x="6" y="8" width="2" height="2" fill="#E7E7E7"/>
<rect x="4" y="12" width="2" height="2" fill="#E7E7E7"/>
<rect x="100" y="28" width="4" height="2" fill="#E7E7E7"/>
<rect x="104" y="24" width="2" height="2" fill="#E7E7E7"/>
<rect x="102" y="26" width="2" height="2" fill="#E7E7E7"/>
<rect x="100" y="26" width="2" height="2" fill="#E7E7E7"/>
<line x1="8" y1="1" x2="104" y2="1" stroke="#F2F2F2" stroke-width="2"/>
<line x1="8" y1="35" x2="104" y2="35" stroke="#F2F2F2" stroke-width="2"/>
<rect x="4" y="4" width="2" height="4" fill="#F2F2F2"/>
<rect x="4" y="28" width="2" height="4" fill="#F2F2F2"/>
<rect x="2" y="8" width="2" height="6" fill="#F2F2F2"/>
<rect x="2" y="22" width="2" height="6" fill="#F2F2F2"/>
<rect y="14" width="2" height="8" fill="#F2F2F2"/>
<rect x="6" y="2" width="2" height="2" fill="#F2F2F2"/>
<rect x="6" y="32" width="2" height="2" fill="#F2F2F2"/>
<rect width="2" height="4" transform="matrix(-1 0 0 1 108 4)" fill="#F2F2F2"/>
<rect width="2" height="4" transform="matrix(-1 0 0 1 108 28)" fill="#F2F2F2"/>
<rect width="2" height="6" transform="matrix(-1 0 0 1 110 8)" fill="#F2F2F2"/>
<rect width="2" height="6" transform="matrix(-1 0 0 1 110 22)" fill="#F2F2F2"/>
<rect width="2" height="8" transform="matrix(-1 0 0 1 112 14)" fill="#F2F2F2"/>
<rect width="2" height="2" transform="matrix(-1 0 0 1 106 2)" fill="#F2F2F2"/>
<rect width="2" height="2" transform="matrix(-1 0 0 1 106 32)" fill="#F2F2F2"/>
<path d="M33.6 16.8C33.6933 17.1733 33.74 17.64 33.74 18.2C33.74 18.7367 33.6933 19.2033 33.6 19.6C33.6933 19.9733 33.74 20.44 33.74 21C33.74 21.5367 33.6933 22.0033 33.6 22.4C33.6933 22.7733 33.74 23.24 33.74 23.8C33.74 24.3367 33.6933 24.8033 33.6 25.2H32.2C32.2933 25.5733 32.34 26.04 32.34 26.6C32.34 27.1367 32.2933 27.6033 32.2 28H25.2C25.1067 27.6033 25.06 27.1367 25.06 26.6C25.06 26.04 25.1067 25.5733 25.2 25.2H23.8C23.7067 24.8033 23.66 24.3367 23.66 23.8C23.66 23.24 23.7067 22.7733 23.8 22.4H22.4C22.3067 22.0033 22.26 21.5367 22.26 21C22.26 20.44 22.3067 19.9733 22.4 19.6C22.3067 19.2033 22.26 18.7367 22.26 18.2C22.26 17.64 22.3067 17.1733 22.4 16.8C22.3067 16.4033 22.26 15.9367 22.26 15.4C22.26 14.84 22.3067 14.3733 22.4 14H23.8C23.7067 13.6033 23.66 13.1367 23.66 12.6C23.66 12.04 23.7067 11.5733 23.8 11.2H25.2C25.1067 10.8033 25.06 10.3367 25.06 9.8C25.06 9.24 25.1067 8.77333 25.2 8.4H32.2C32.2933 8.77333 32.34 9.24 32.34 9.8C32.34 10.3367 32.2933 10.8033 32.2 11.2H33.6C33.6933 11.5733 33.74 12.04 33.74 12.6C33.74 13.1367 33.6933 13.6033 33.6 14H30.8C30.7067 13.6033 30.66 13.1367 30.66 12.6C30.66 12.04 30.7067 11.5733 30.8 11.2H26.6C26.6933 11.5733 26.74 12.04 26.74 12.6C26.74 13.1367 26.6933 13.6033 26.6 14H25.2C25.2933 14.3733 25.34 14.84 25.34 15.4C25.34 15.9367 25.2933 16.4033 25.2 16.8C25.2933 17.1733 25.34 17.64 25.34 18.2C25.34 18.7367 25.2933 19.2033 25.2 19.6C25.2933 19.9733 25.34 20.44 25.34 21C25.34 21.5367 25.2933 22.0033 25.2 22.4H26.6C26.6933 22.7733 26.74 23.24 26.74 23.8C26.74 24.3367 26.6933 24.8033 26.6 25.2H30.8C30.7067 24.8033 30.66 24.3367 30.66 23.8C30.66 23.24 30.7067 22.7733 30.8 22.4C30.7067 22.0033 30.66 21.5367 30.66 21C30.66 20.44 30.7067 19.9733 30.8 19.6H28.7C28.6067 19.2033 28.56 18.7367 28.56 18.2C28.56 17.64 28.6067 17.1733 28.7 16.8H33.6ZM47.6137 16.8C47.707 17.1733 47.7537 17.64 47.7537 18.2C47.7537 18.7367 47.707 19.2033 47.6137 19.6C47.707 19.9733 47.7537 20.44 47.7537 21C47.7537 21.5367 47.707 22.0033 47.6137 22.4H46.5637C46.657 22.7733 46.7037 23.24 46.7037 23.8C46.7037 24.3367 46.657 24.8033 46.5637 25.2H44.8137C44.907 25.5733 44.9537 26.04 44.9537 26.6C44.9537 27.1367 44.907 27.6033 44.8137 28H39.2137C39.1203 27.6033 39.0737 27.1367 39.0737 26.6C39.0737 26.04 39.1203 25.5733 39.2137 25.2H37.4637C37.3703 24.8033 37.3237 24.3367 37.3237 23.8C37.3237 23.24 37.3703 22.7733 37.4637 22.4H36.4137C36.3203 22.0033 36.2737 21.5367 36.2737 21C36.2737 20.44 36.3203 19.9733 36.4137 19.6C36.3203 19.2033 36.2737 18.7367 36.2737 18.2C36.2737 17.64 36.3203 17.1733 36.4137 16.8C36.3203 16.4033 36.2737 15.9367 36.2737 15.4C36.2737 14.84 36.3203 14.3733 36.4137 14H37.4637C37.3703 13.6033 37.3237 13.1367 37.3237 12.6C37.3237 12.04 37.3703 11.5733 37.4637 11.2H39.2137C39.1203 10.8033 39.0737 10.3367 39.0737 9.8C39.0737 9.24 39.1203 8.77333 39.2137 8.4H44.8137C44.907 8.77333 44.9537 9.24 44.9537 9.8C44.9537 10.3367 44.907 10.8033 44.8137 11.2H46.5637C46.657 11.5733 46.7037 12.04 46.7037 12.6C46.7037 13.1367 46.657 13.6033 46.5637 14H47.6137C47.707 14.3733 47.7537 14.84 47.7537 15.4C47.7537 15.9367 47.707 16.4033 47.6137 16.8ZM44.8137 22.4C44.7203 22.0033 44.6737 21.5367 44.6737 21C44.6737 20.44 44.7203 19.9733 44.8137 19.6C44.7203 19.2033 44.6737 18.7367 44.6737 18.2C44.6737 17.64 44.7203 17.1733 44.8137 16.8C44.7203 16.4033 44.6737 15.9367 44.6737 15.4C44.6737 14.84 44.7203 14.3733 44.8137 14H43.7637C43.6703 13.6033 43.6237 13.1367 43.6237 12.6C43.6237 12.04 43.6703 11.5733 43.7637 11.2H40.2637C40.357 11.5733 40.4037 12.04 40.4037 12.6C40.4037 13.1367 40.357 13.6033 40.2637 14H39.2137C39.307 14.3733 39.3537 14.84 39.3537 15.4C39.3537 15.9367 39.307 16.4033 39.2137 16.8C39.307 17.1733 39.3537 17.64 39.3537 18.2C39.3537 18.7367 39.307 19.2033 39.2137 19.6C39.307 19.9733 39.3537 20.44 39.3537 21C39.3537 21.5367 39.307 22.0033 39.2137 22.4H40.2637C40.357 22.7733 40.4037 23.24 40.4037 23.8C40.4037 24.3367 40.357 24.8033 40.2637 25.2H43.7637C43.6703 24.8033 43.6237 24.3367 43.6237 23.8C43.6237 23.24 43.6703 22.7733 43.7637 22.4H44.8137ZM75.781 9.8C75.781 10.3367 75.7343 10.8033 75.641 11.2H71.441C71.5343 11.5733 71.581 12.04 71.581 12.6C71.581 13.1367 71.5343 13.6033 71.441 14C71.5343 14.3733 71.581 14.84 71.581 15.4C71.581 15.9367 71.5343 16.4033 71.441 16.8C71.5343 17.1733 71.581 17.64 71.581 18.2C71.581 18.7367 71.5343 19.2033 71.441 19.6C71.5343 19.9733 71.581 20.44 71.581 21C71.581 21.5367 71.5343 22.0033 71.441 22.4C71.5343 22.7733 71.581 23.24 71.581 23.8C71.581 24.3367 71.5343 24.8033 71.441 25.2C71.5343 25.5733 71.581 26.04 71.581 26.6C71.581 27.1367 71.5343 27.6033 71.441 28H68.641C68.5477 27.6033 68.501 27.1367 68.501 26.6C68.501 26.04 68.5477 25.5733 68.641 25.2C68.5477 24.8033 68.501 24.3367 68.501 23.8C68.501 23.24 68.5477 22.7733 68.641 22.4C68.5477 22.0033 68.501 21.5367 68.501 21C68.501 20.44 68.5477 19.9733 68.641 19.6C68.5477 19.2033 68.501 18.7367 68.501 18.2C68.501 17.64 68.5477 17.1733 68.641 16.8C68.5477 16.4033 68.501 15.9367 68.501 15.4C68.501 14.84 68.5477 14.3733 68.641 14C68.5477 13.6033 68.501 13.1367 68.501 12.6C68.501 12.04 68.5477 11.5733 68.641 11.2H64.441C64.3477 10.8033 64.301 10.3367 64.301 9.8C64.301 9.24 64.3477 8.77333 64.441 8.4H75.641C75.7343 8.77333 75.781 9.24 75.781 9.8ZM89.6547 16.8C89.748 17.1733 89.7947 17.64 89.7947 18.2C89.7947 18.7367 89.748 19.2033 89.6547 19.6C89.748 19.9733 89.7947 20.44 89.7947 21C89.7947 21.5367 89.748 22.0033 89.6547 22.4H88.6047C88.698 22.7733 88.7447 23.24 88.7447 23.8C88.7447 24.3367 88.698 24.8033 88.6047 25.2H86.8547C86.948 25.5733 86.9947 26.04 86.9947 26.6C86.9947 27.1367 86.948 27.6033 86.8547 28H81.2547C81.1614 27.6033 81.1147 27.1367 81.1147 26.6C81.1147 26.04 81.1614 25.5733 81.2547 25.2H79.5047C79.4114 24.8033 79.3647 24.3367 79.3647 23.8C79.3647 23.24 79.4114 22.7733 79.5047 22.4H78.4547C78.3614 22.0033 78.3147 21.5367 78.3147 21C78.3147 20.44 78.3614 19.9733 78.4547 19.6C78.3614 19.2033 78.3147 18.7367 78.3147 18.2C78.3147 17.64 78.3614 17.1733 78.4547 16.8C78.3614 16.4033 78.3147 15.9367 78.3147 15.4C78.3147 14.84 78.3614 14.3733 78.4547 14H79.5047C79.4114 13.6033 79.3647 13.1367 79.3647 12.6C79.3647 12.04 79.4114 11.5733 79.5047 11.2H81.2547C81.1614 10.8033 81.1147 10.3367 81.1147 9.8C81.1147 9.24 81.1614 8.77333 81.2547 8.4H86.8547C86.948 8.77333 86.9947 9.24 86.9947 9.8C86.9947 10.3367 86.948 10.8033 86.8547 11.2H88.6047C88.698 11.5733 88.7447 12.04 88.7447 12.6C88.7447 13.1367 88.698 13.6033 88.6047 14H89.6547C89.748 14.3733 89.7947 14.84 89.7947 15.4C89.7947 15.9367 89.748 16.4033 89.6547 16.8ZM86.8547 22.4C86.7614 22.0033 86.7147 21.5367 86.7147 21C86.7147 20.44 86.7614 19.9733 86.8547 19.6C86.7614 19.2033 86.7147 18.7367 86.7147 18.2C86.7147 17.64 86.7614 17.1733 86.8547 16.8C86.7614 16.4033 86.7147 15.9367 86.7147 15.4C86.7147 14.84 86.7614 14.3733 86.8547 14H85.8047C85.7114 13.6033 85.6647 13.1367 85.6647 12.6C85.6647 12.04 85.7114 11.5733 85.8047 11.2H82.3047C82.398 11.5733 82.4447 12.04 82.4447 12.6C82.4447 13.1367 82.398 13.6033 82.3047 14H81.2547C81.348 14.3733 81.3947 14.84 81.3947 15.4C81.3947 15.9367 81.348 16.4033 81.2547 16.8C81.348 17.1733 81.3947 17.64 81.3947 18.2C81.3947 18.7367 81.348 19.2033 81.2547 19.6C81.348 19.9733 81.3947 20.44 81.3947 21C81.3947 21.5367 81.348 22.0033 81.2547 22.4H82.3047C82.398 22.7733 82.4447 23.24 82.4447 23.8C82.4447 24.3367 82.398 24.8033 82.3047 25.2H85.8047C85.7114 24.8033 85.6647 24.3367 85.6647 23.8C85.6647 23.24 85.7114 22.7733 85.8047 22.4H86.8547Z" fill="white"/>
</svg>
