<svg width="82" height="22" viewBox="0 0 82 22" fill="none" xmlns="http://www.w3.org/2000/svg">
<rect x="2" y="8" width="4" height="6" fill="#737373"/>
<path d="M6 2H76V20H6V2Z" fill="#737373"/>
<rect x="4" y="4" width="2" height="4" fill="#737373"/>
<rect x="4" y="14" width="2" height="4" fill="#737373"/>
<rect width="4" height="6" transform="matrix(-1 0 0 1 80 8)" fill="#737373"/>
<rect width="2" height="4" transform="matrix(-1 0 0 1 78 4)" fill="#737373"/>
<rect width="2" height="4" transform="matrix(-1 0 0 1 78 14)" fill="#737373"/>
<rect x="2" y="8" width="2" height="6" fill="#404040"/>
<rect x="4" y="12" width="2" height="6" fill="#404040"/>
<rect x="6" y="16" width="2" height="2" fill="#404040"/>
<rect x="6" y="18" width="70" height="2" fill="#404040"/>
<rect x="76" y="12" width="2" height="6" fill="#404040"/>
<rect x="74" y="16" width="2" height="2" fill="#404040"/>
<rect x="78" y="8" width="2" height="6" fill="#404040"/>
<rect x="76" y="4" width="2" height="2" fill="#BFBFBF"/>
<rect x="12" y="2" width="64" height="2" fill="#BFBFBF"/>
<rect x="6" y="2" width="2" height="2" fill="#BFBFBF"/>
<rect x="4" y="4" width="2" height="2" fill="#BFBFBF"/>
<rect x="8" y="2" width="4" height="2" fill="#E7E7E7"/>
<rect x="6" y="4" width="2" height="2" fill="#E7E7E7"/>
<rect x="4" y="6" width="2" height="2" fill="#E7E7E7"/>
<rect x="70" y="16" width="4" height="2" fill="#E7E7E7"/>
<rect x="74" y="14" width="2" height="2" fill="#E7E7E7"/>
<line x1="6" y1="1" x2="76" y2="1" stroke="#F2F2F2" stroke-width="2"/>
<line x1="6" y1="21" x2="76" y2="21" stroke="#F2F2F2" stroke-width="2"/>
<rect x="4" y="2" width="2" height="2" fill="#F2F2F2"/>
<rect x="4" y="18" width="2" height="2" fill="#F2F2F2"/>
<rect x="2" y="4" width="2" height="4" fill="#F2F2F2"/>
<rect x="2" y="14" width="2" height="4" fill="#F2F2F2"/>
<rect y="8" width="2" height="6" fill="#F2F2F2"/>
<rect width="2" height="2" transform="matrix(-1 0 0 1 78 2)" fill="#F2F2F2"/>
<rect width="2" height="2" transform="matrix(-1 0 0 1 78 18)" fill="#F2F2F2"/>
<rect width="2" height="4" transform="matrix(-1 0 0 1 80 4)" fill="#F2F2F2"/>
<rect width="2" height="4" transform="matrix(-1 0 0 1 80 14)" fill="#F2F2F2"/>
<rect width="2" height="6" transform="matrix(-1 0 0 1 82 8)" fill="#F2F2F2"/>
<path d="M25.64 10.32C25.704 10.576 25.736 10.896 25.736 11.28C25.736 11.648 25.704 11.968 25.64 12.24C25.704 12.496 25.736 12.816 25.736 13.2C25.736 13.568 25.704 13.888 25.64 14.16C25.704 14.416 25.736 14.736 25.736 15.12C25.736 15.488 25.704 15.808 25.64 16.08H24.68C24.744 16.336 24.776 16.656 24.776 17.04C24.776 17.408 24.744 17.728 24.68 18H19.88C19.816 17.728 19.784 17.408 19.784 17.04C19.784 16.656 19.816 16.336 19.88 16.08H18.92C18.856 15.808 18.824 15.488 18.824 15.12C18.824 14.736 18.856 14.416 18.92 14.16H17.96C17.896 13.888 17.864 13.568 17.864 13.2C17.864 12.816 17.896 12.496 17.96 12.24C17.896 11.968 17.864 11.648 17.864 11.28C17.864 10.896 17.896 10.576 17.96 10.32C17.896 10.048 17.864 9.728 17.864 9.36C17.864 8.976 17.896 8.656 17.96 8.4H18.92C18.856 8.128 18.824 7.808 18.824 7.44C18.824 7.056 18.856 6.736 18.92 6.48H19.88C19.816 6.208 19.784 5.888 19.784 5.52C19.784 5.136 19.816 4.816 19.88 4.56H24.68C24.744 4.816 24.776 5.136 24.776 5.52C24.776 5.888 24.744 6.208 24.68 6.48H25.64C25.704 6.736 25.736 7.056 25.736 7.44C25.736 7.808 25.704 8.128 25.64 8.4H23.72C23.656 8.128 23.624 7.808 23.624 7.44C23.624 7.056 23.656 6.736 23.72 6.48H20.84C20.904 6.736 20.936 7.056 20.936 7.44C20.936 7.808 20.904 8.128 20.84 8.4H19.88C19.944 8.656 19.976 8.976 19.976 9.36C19.976 9.728 19.944 10.048 19.88 10.32C19.944 10.576 19.976 10.896 19.976 11.28C19.976 11.648 19.944 11.968 19.88 12.24C19.944 12.496 19.976 12.816 19.976 13.2C19.976 13.568 19.944 13.888 19.88 14.16H20.84C20.904 14.416 20.936 14.736 20.936 15.12C20.936 15.488 20.904 15.808 20.84 16.08H23.72C23.656 15.808 23.624 15.488 23.624 15.12C23.624 14.736 23.656 14.416 23.72 14.16C23.656 13.888 23.624 13.568 23.624 13.2C23.624 12.816 23.656 12.496 23.72 12.24H22.28C22.216 11.968 22.184 11.648 22.184 11.28C22.184 10.896 22.216 10.576 22.28 10.32H25.64ZM35.2494 10.32C35.3134 10.576 35.3454 10.896 35.3454 11.28C35.3454 11.648 35.3134 11.968 35.2494 12.24C35.3134 12.496 35.3454 12.816 35.3454 13.2C35.3454 13.568 35.3134 13.888 35.2494 14.16H34.5294C34.5934 14.416 34.6254 14.736 34.6254 15.12C34.6254 15.488 34.5934 15.808 34.5294 16.08H33.3294C33.3934 16.336 33.4254 16.656 33.4254 17.04C33.4254 17.408 33.3934 17.728 33.3294 18H29.4894C29.4254 17.728 29.3934 17.408 29.3934 17.04C29.3934 16.656 29.4254 16.336 29.4894 16.08H28.2894C28.2254 15.808 28.1934 15.488 28.1934 15.12C28.1934 14.736 28.2254 14.416 28.2894 14.16H27.5694C27.5054 13.888 27.4734 13.568 27.4734 13.2C27.4734 12.816 27.5054 12.496 27.5694 12.24C27.5054 11.968 27.4734 11.648 27.4734 11.28C27.4734 10.896 27.5054 10.576 27.5694 10.32C27.5054 10.048 27.4734 9.728 27.4734 9.36C27.4734 8.976 27.5054 8.656 27.5694 8.4H28.2894C28.2254 8.128 28.1934 7.808 28.1934 7.44C28.1934 7.056 28.2254 6.736 28.2894 6.48H29.4894C29.4254 6.208 29.3934 5.888 29.3934 5.52C29.3934 5.136 29.4254 4.816 29.4894 4.56H33.3294C33.3934 4.816 33.4254 5.136 33.4254 5.52C33.4254 5.888 33.3934 6.208 33.3294 6.48H34.5294C34.5934 6.736 34.6254 7.056 34.6254 7.44C34.6254 7.808 34.5934 8.128 34.5294 8.4H35.2494C35.3134 8.656 35.3454 8.976 35.3454 9.36C35.3454 9.728 35.3134 10.048 35.2494 10.32ZM33.3294 14.16C33.2654 13.888 33.2334 13.568 33.2334 13.2C33.2334 12.816 33.2654 12.496 33.3294 12.24C33.2654 11.968 33.2334 11.648 33.2334 11.28C33.2334 10.896 33.2654 10.576 33.3294 10.32C33.2654 10.048 33.2334 9.728 33.2334 9.36C33.2334 8.976 33.2654 8.656 33.3294 8.4H32.6094C32.5454 8.128 32.5134 7.808 32.5134 7.44C32.5134 7.056 32.5454 6.736 32.6094 6.48H30.2094C30.2734 6.736 30.3054 7.056 30.3054 7.44C30.3054 7.808 30.2734 8.128 30.2094 8.4H29.4894C29.5534 8.656 29.5854 8.976 29.5854 9.36C29.5854 9.728 29.5534 10.048 29.4894 10.32C29.5534 10.576 29.5854 10.896 29.5854 11.28C29.5854 11.648 29.5534 11.968 29.4894 12.24C29.5534 12.496 29.5854 12.816 29.5854 13.2C29.5854 13.568 29.5534 13.888 29.4894 14.16H30.2094C30.2734 14.416 30.3054 14.736 30.3054 15.12C30.3054 15.488 30.2734 15.808 30.2094 16.08H32.6094C32.5454 15.808 32.5134 15.488 32.5134 15.12C32.5134 14.736 32.5454 14.416 32.6094 14.16H33.3294ZM54.5641 5.52C54.5641 5.888 54.5321 6.208 54.4681 6.48H51.5881C51.6521 6.736 51.6841 7.056 51.6841 7.44C51.6841 7.808 51.6521 8.128 51.5881 8.4C51.6521 8.656 51.6841 8.976 51.6841 9.36C51.6841 9.728 51.6521 10.048 51.5881 10.32C51.6521 10.576 51.6841 10.896 51.6841 11.28C51.6841 11.648 51.6521 11.968 51.5881 12.24C51.6521 12.496 51.6841 12.816 51.6841 13.2C51.6841 13.568 51.6521 13.888 51.5881 14.16C51.6521 14.416 51.6841 14.736 51.6841 15.12C51.6841 15.488 51.6521 15.808 51.5881 16.08C51.6521 16.336 51.6841 16.656 51.6841 17.04C51.6841 17.408 51.6521 17.728 51.5881 18H49.6681C49.6041 17.728 49.5721 17.408 49.5721 17.04C49.5721 16.656 49.6041 16.336 49.6681 16.08C49.6041 15.808 49.5721 15.488 49.5721 15.12C49.5721 14.736 49.6041 14.416 49.6681 14.16C49.6041 13.888 49.5721 13.568 49.5721 13.2C49.5721 12.816 49.6041 12.496 49.6681 12.24C49.6041 11.968 49.5721 11.648 49.5721 11.28C49.5721 10.896 49.6041 10.576 49.6681 10.32C49.6041 10.048 49.5721 9.728 49.5721 9.36C49.5721 8.976 49.6041 8.656 49.6681 8.4C49.6041 8.128 49.5721 7.808 49.5721 7.44C49.5721 7.056 49.6041 6.736 49.6681 6.48H46.7881C46.7241 6.208 46.6921 5.888 46.6921 5.52C46.6921 5.136 46.7241 4.816 46.7881 4.56H54.4681C54.5321 4.816 54.5641 5.136 54.5641 5.52ZM64.0775 10.32C64.1415 10.576 64.1735 10.896 64.1735 11.28C64.1735 11.648 64.1415 11.968 64.0775 12.24C64.1415 12.496 64.1735 12.816 64.1735 13.2C64.1735 13.568 64.1415 13.888 64.0775 14.16H63.3575C63.4215 14.416 63.4535 14.736 63.4535 15.12C63.4535 15.488 63.4215 15.808 63.3575 16.08H62.1575C62.2215 16.336 62.2535 16.656 62.2535 17.04C62.2535 17.408 62.2215 17.728 62.1575 18H58.3175C58.2535 17.728 58.2215 17.408 58.2215 17.04C58.2215 16.656 58.2535 16.336 58.3175 16.08H57.1175C57.0535 15.808 57.0215 15.488 57.0215 15.12C57.0215 14.736 57.0535 14.416 57.1175 14.16H56.3975C56.3335 13.888 56.3015 13.568 56.3015 13.2C56.3015 12.816 56.3335 12.496 56.3975 12.24C56.3335 11.968 56.3015 11.648 56.3015 11.28C56.3015 10.896 56.3335 10.576 56.3975 10.32C56.3335 10.048 56.3015 9.728 56.3015 9.36C56.3015 8.976 56.3335 8.656 56.3975 8.4H57.1175C57.0535 8.128 57.0215 7.808 57.0215 7.44C57.0215 7.056 57.0535 6.736 57.1175 6.48H58.3175C58.2535 6.208 58.2215 5.888 58.2215 5.52C58.2215 5.136 58.2535 4.816 58.3175 4.56H62.1575C62.2215 4.816 62.2535 5.136 62.2535 5.52C62.2535 5.888 62.2215 6.208 62.1575 6.48H63.3575C63.4215 6.736 63.4535 7.056 63.4535 7.44C63.4535 7.808 63.4215 8.128 63.3575 8.4H64.0775C64.1415 8.656 64.1735 8.976 64.1735 9.36C64.1735 9.728 64.1415 10.048 64.0775 10.32ZM62.1575 14.16C62.0935 13.888 62.0615 13.568 62.0615 13.2C62.0615 12.816 62.0935 12.496 62.1575 12.24C62.0935 11.968 62.0615 11.648 62.0615 11.28C62.0615 10.896 62.0935 10.576 62.1575 10.32C62.0935 10.048 62.0615 9.728 62.0615 9.36C62.0615 8.976 62.0935 8.656 62.1575 8.4H61.4375C61.3735 8.128 61.3415 7.808 61.3415 7.44C61.3415 7.056 61.3735 6.736 61.4375 6.48H59.0375C59.1015 6.736 59.1335 7.056 59.1335 7.44C59.1335 7.808 59.1015 8.128 59.0375 8.4H58.3175C58.3815 8.656 58.4135 8.976 58.4135 9.36C58.4135 9.728 58.3815 10.048 58.3175 10.32C58.3815 10.576 58.4135 10.896 58.4135 11.28C58.4135 11.648 58.3815 11.968 58.3175 12.24C58.3815 12.496 58.4135 12.816 58.4135 13.2C58.4135 13.568 58.3815 13.888 58.3175 14.16H59.0375C59.1015 14.416 59.1335 14.736 59.1335 15.12C59.1335 15.488 59.1015 15.808 59.0375 16.08H61.4375C61.3735 15.808 61.3415 15.488 61.3415 15.12C61.3415 14.736 61.3735 14.416 61.4375 14.16H62.1575Z" fill="white"/>
</svg>
