<svg width="24" height="24" viewBox="0 0 24 24" fill="none" xmlns="http://www.w3.org/2000/svg">
<g clip-path="url(#clip0_86_454)">
<path d="M24 2.28754H22.8525V22.86H24V2.28754Z" fill="#0d0d0d"/>
<path d="M22.8525 1.14001H21.7125V2.28751H22.8525V1.14001Z" fill="#0d0d0d"/>
<path d="M20.5725 12.57H19.425V22.86H4.56751V12.57H3.42751V22.86H1.14001V24H22.8525V22.86H20.5725V12.57Z" fill="#0d0d0d"/>
<path d="M13.71 6.85504H18.285V2.28754H13.71V6.85504ZM14.8575 3.42754H15.9975V5.71504H14.8575V3.42754Z" fill="#0d0d0d"/>
<path d="M17.1375 19.425H6.85498V20.5725H17.1375V19.425Z" fill="#0d0d0d"/>
<path d="M17.1375 15.9975H6.85498V17.145H17.1375V15.9975Z" fill="#0d0d0d"/>
<path d="M19.425 11.43H4.5675V12.57H19.425V11.43Z" fill="#0d0d0d"/>
<path d="M3.42748 6.855H4.56748V1.14H6.85498V6.855H4.56748V8.0025H6.85498V9.1425H20.5725V1.14H21.7125V0H2.28748V1.14H3.42748V6.855ZM7.99498 1.14H19.425V8.0025H7.99498V1.14Z" fill="#0d0d0d"/>
<path d="M2.28751 1.14001H1.14001V2.28751H2.28751V1.14001Z" fill="#0d0d0d"/>
<path d="M1.14 2.28754H0V22.86H1.14V2.28754Z" fill="#0d0d0d"/>
</g>
<defs>
<clipPath id="clip0_86_454">
<rect width="24" height="24" fill="white"/>
</clipPath>
</defs>
</svg>
